Simulation
nRows=39
nColumns=15
endheader
time  TH_x TH_y TH_z SC_y  SC_z  SC_x  AC_y  AC_z  AC_x  GH_y  GH_z  GH_yy  EL_x  PS_y
5.35  0.000000  0.000000  0.000000  -17.783150056551595  5.153073416652007  3.691867946395149  55.07346814197591  15.620139105548915  5.203855916920473  43.851451209966214  46.87607620330973  -50.310012671260424  39.638211773856305  120.000000
5.390225563909774  0.000000  0.000000  0.000000  -17.56654035431128  5.283239659957798  4.058791438089141  55.160826931411975  15.351881186898924  5.229873464418081  44.964503472745086  47.763975543667826  -49.66772223915166  38.387848914499735  120.000000
5.430451127819548  0.000000  0.000000  0.000000  -17.36973231437826  5.410387261610186  4.441154409105694  55.25527984893412  15.058456607582269  5.237491984277444  46.02753828734071  48.62843273026087  -49.04660132253058  37.16349343362752  120.000000
5.470676691729323  0.000000  0.000000  0.000000  -17.194664316244463  5.534650088821455  4.832168197742239  55.35168820514028  14.745647969560558  5.22778453983498  47.015566482763596  49.45229290292603  -48.46123061896798  36.0171331197691  120.000000
5.510902255639097  0.000000  0.000000  0.000000  -17.04175357515949  5.655483329055003  5.2241146735596375  55.4441107038327  14.420043825825815  5.201294384998267  47.902720470974515  50.21963924211819  -47.92512963013643  35.001553416507605  120.000000
5.5511278195488725  0.000000  0.000000  0.000000  -16.91021957625778  5.772055185421519  5.608310827872425  55.526104327159054  14.08851772064251  5.15843973666755  48.66420397463848  50.91644837159467  -47.4506916933154  34.16977719471039  120.000000
5.591353383458647  0.000000  0.000000  0.000000  -16.79883606033477  5.88338940674079  5.975651327778304  55.59137215821472  13.758148849884675  5.099826795895417  49.2783750802057  51.53152214429931  -47.048789762304104  33.57209998383043  120.000000
5.631578947368421  0.000000  0.000000  0.000000  -16.706352074117394  5.988796816689791  6.317633780064082  55.63464262294644  13.43637852700397  5.026907076307648  49.728684123390615  52.0573558169744  -46.72776438075246  33.25014146043366  120.000000
5.671804511278196  0.000000  0.000000  0.000000  -16.631279987423543  6.0877287402238025  6.627670250053823  55.65270185168525  13.131228754306207  4.942378688637695  50.00526967618297  52.49064454543384  -46.49236792266669  33.23039260446949  120.000000
5.71203007518797  0.000000  0.000000  0.000000  -16.57207321084508  6.179582966078536  6.901780260067087  55.64506386352157  12.851002012329758  4.8503134995538  50.10595427828459  52.83234628906262  -46.343768311087395  33.5220745288495  120.000000
5.752255639097744  0.000000  0.000000  0.000000  -16.52777385681227  6.264031710644471  7.138472018825617  55.61368419499829  12.603563474990079  4.755981862017789  50.036016718025884  53.08713665855725  -46.28044399468905  34.12068210111131  120.000000
5.792481203007519  0.000000  0.000000  0.000000  -16.498576193956797  6.341282156531418  7.338425743440781  55.56219029511898  12.395722950513244  4.665281720581468  49.80681390902653  53.262466287681306  -46.29926407133383  35.013700288744374  120.000000
5.832706766917293  0.000000  0.000000  0.000000  -16.48602314481709  6.412121846025454  7.504184178140682  55.49514630769097  12.232869892877767  4.5841412117594444  49.434105425223194  53.36764993607312  -46.396545580113695  36.18525072207707  120.000000
5.872932330827068  0.000000  0.000000  0.000000  -16.492823286491564  6.477841295919775  7.639895432624747  55.41749820014749  12.118886892982992  4.518131931560461  48.936431763883164  53.4131017772567  -46.568758880005106  37.618917601784936  120.000000
5.913157894736842  0.000000  0.000000  0.000000  -16.52257976294674  6.540151480272159  7.751221570161153  55.334179797298454  12.056264292542378  4.472255854003668  48.333813340036635  53.409767099607066  -46.81282868452468  39.2990268563067  120.000000
5.953383458646616  0.000000  0.000000  0.000000  -16.579394366515146  6.601013128398631  7.845391364882241  55.24993416873449  12.04632676255828  4.450817987106895  47.64678988922305  53.3687228162611  -47.126074560269174  41.210813447443336  120.000000
5.993609022556391  0.000000  0.000000  0.000000  -16.667252614780388  6.662335538925568  7.931166782635074  55.16922183653473  12.08944097951306  4.4573857582537535  46.89587615565143  53.30090971495438  -47.50595477241077  43.34009608131387  120.000000
6.033834586466165  0.000000  0.000000  0.000000  -16.789593683306144  6.7257753200524535  8.018675036092487  55.096207031519405  12.185098068599451  4.494804189937318  46.10133470533639  53.216830765162044  -47.949726959707746  45.67309818099494  120.000000
6.0740601503759395  0.000000  0.000000  0.000000  -16.948973829035257  6.792578798450309  8.119062590050998  55.034622551336255  12.331924187573028  4.565166450515327  45.28283422088249  53.12615034194637  -48.45404258960178  48.196183609078545  120.000000
6.114285714285714  0.000000  0.000000  0.000000  -17.146565474337404  6.86350086664513  8.243863803196513  54.98744645255418  12.527635067002775  4.66984438250791  44.458621219997006  53.03714226944185  -49.01450961912005  50.895136647875184  120.000000
6.154511278195488  0.000000  0.000000  0.000000  -17.381994530089614  6.938832553404744  8.404056415526844  54.95654101959366  12.76885667099526  4.8095500816399515  43.64449290217131  52.95617161875276  -49.62523737942982  53.754700298632265  120.000000
6.194736842105263  0.000000  0.000000  0.000000  -17.65367020244943  7.018544619881573  8.60896822640426  54.94239133787293  13.050809925643392  4.984350986415638  42.853060045782314  52.88757972773379  -50.278773191828535  56.75805748680246  120.000000
6.234962406015037  0.000000  0.000000  0.000000  -17.958937779194272  7.102542154274004  8.865341391458934  54.943899473366564  13.367090185176519  5.193775635946928  42.09333489649057  52.83378981651199  -50.96638869705238  59.88577163107615  120.000000
6.275187969924812  0.000000  0.000000  0.000000  -18.294102894868995  7.19075693697517  9.1767460820186  54.958416857583366  13.709828298622666  5.436975850580251  41.37073452118251  52.79530500177263  -51.6783212696356  63.115390478702565  120.000000
6.315413533834587  0.000000  0.000000  0.000000  -18.654796188889172  7.28305615732184  9.54340576250191  54.98228495062448  14.070210434880197  5.712805067625352  40.68771556030907  52.77079842143327  -52.40404304471149  66.42198227527567  120.000000
6.355639097744361  0.000000  0.000000  0.000000  -19.036419522691453  7.379168305594051  9.962388558851936  55.01161962180893  14.43910354579384  6.019888734709927  40.04479607410608  52.75742928292463  -53.132585938352776  69.77891351875998  120.000000
6.3958646616541355  0.000000  0.000000  0.000000  -19.434365170767183  7.4785340384636445  10.428075918799353  55.04307492350828  14.807760178595682  6.356584950012104  39.44153740368317  52.75122863691368  -53.85298011878082  73.15865546457296  120.000000
6.43609022556391  0.000000  0.000000  0.000000  -19.84422655415987  7.580207547331526  10.932790408332334  55.07429980483707  15.168458537973132  6.720828875702869  38.877125411945684  52.74751176560209  -54.5546101646187  76.53347618728786  120.000000
6.476315789473684  0.000000  0.000000  0.000000  -20.262183510166476  7.682945121842109  11.467510166283997  55.104027662756636  15.514913022460462  7.109874571750046  38.350510940863686  52.7412634848071  -55.22728533646335  79.87575678146844  120.000000
6.516541353383459  0.000000  0.000000  0.000000  -20.68487918120493  7.785180187865224  12.022336223660309  55.13214732405481  15.842359735502129  7.519989538668657  37.86054444017722  52.72739433750282  -55.86144975045367  83.15790230852048  120.000000
6.556766917293233  0.000000  0.000000  0.000000  -21.10849316910617  7.884864571248682  12.586556667892841  55.15991064203116  16.14726286155931  7.946180782311582  37.4065015256559  52.700952041240726  -56.44893900010911  86.35213616633754  120.000000
6.596992481203007  0.000000  0.000000  0.000000  -21.528436902477853  7.9797515482212384  13.148756651294025  55.189948731516154  16.426949317220974  8.382214114942217  36.988485204240234  52.65752563132206  -56.98353707890747  89.43024841251766  120.000000
6.637218045112782  0.000000  0.000000  0.000000  -21.93995631663806  8.067969367885174  13.697477872953899  55.225617965366666  16.679697877431018  8.820891693826463  36.606814810623284  52.59380768926121  -57.4607416404262  92.36355168327752  120.000000
6.677443609022556  0.000000  0.000000  0.000000  -22.338399233814933  8.147880930720738  14.222320513922572  55.269969773357495  16.905250602888742  9.254254163281624  36.260891362186484  52.50807209075386  -57.87725422594698  95.12380886402742  120.000000
6.717669172932331  0.000000  0.000000  0.000000  -22.719333785942638  8.217732591624587  14.71464034141628  55.325094330595505  17.104810197283733  9.67397142721105  35.94931690344783  52.40038697502837  -58.231183246294975  97.68537727331451  120.000000
6.757894736842105  0.000000  0.000000  0.000000  -23.07823756083176  8.275668652357458  15.167437746504607  55.39198777693589  17.280468658628514  10.071755764208218  35.67110812377969  52.272271536504974  -58.52304318118053  100.02792004423115  120.000000
6.798120300751879  0.000000  0.000000  0.000000  -23.410244307470695  8.32017602696516  15.57510610871409  55.47057541585814  17.434501431559255  10.439917589785507  35.426792499672025  52.12606647138866  -58.756529004174006  102.13843112800487  120.000000
6.838345864661654  0.000000  0.000000  0.000000  -23.71127838173716  8.350948298822013  15.933729366582842  55.55968223653468  17.568910622743005  10.77227296440056  35.21848690853713  51.96470869568701  -58.93824636115699  104.01190162129016  120.000000
6.878571428571428  0.000000  0.000000  0.000000  -23.97905148540371  8.368906126400972  16.241753802202847  55.65685916304859  17.685585307543118  11.064659785813662  35.048768673418365  51.791949167836904  -59.07650705748496  105.65064950765199  120.000000
